<?xml version="1.0" standalone="no"?>
<!DOCTYPE svg PUBLIC "-//W3C//DTD SVG 20010904//EN"
 "http://www.w3.org/TR/2001/REC-SVG-20010904/DTD/svg10.dtd">
<svg version="1.0" xmlns="http://www.w3.org/2000/svg"
 width="192.000000pt" height="192.000000pt" viewBox="0 0 192.000000 192.000000"
 preserveAspectRatio="xMidYMid meet">

<g transform="translate(0.000000,192.000000) scale(0.100000,-0.100000)"
fill="#000000" stroke="none">
<path d="M1204 1452 c10 -16 -15 -59 -79 -137 -30 -37 -55 -71 -55 -76 0 -5
-7 -9 -16 -9 -12 0 -14 -5 -9 -17 4 -10 8 -26 9 -35 1 -10 5 -21 9 -24 4 -4 7
-24 7 -44 0 -20 -3 -40 -7 -44 -4 -3 -8 -14 -9 -24 -1 -9 -5 -26 -10 -37 -6
-16 -5 -17 7 -7 8 6 32 27 54 44 23 18 41 35 41 38 3 18 16 50 22 50 4 0 8 19
10 41 1 23 8 51 14 63 11 19 13 17 22 -29 6 -35 6 -50 -3 -53 -6 -2 -9 -8 -6
-12 9 -15 -21 -76 -60 -119 -21 -23 -34 -41 -31 -41 34 0 128 88 134 125 2 11
7 25 11 30 9 13 6 165 -4 188 -4 10 -5 21 -1 24 3 3 2 11 -3 17 -5 6 -14 28
-20 48 -7 21 -17 41 -23 44 -7 4 -8 2 -4 -4z"/>
<path d="M767 1263 c-4 -6 -3 -14 2 -17 5 -3 12 -21 15 -41 7 -38 22 -54 22
-24 0 10 -4 19 -9 19 -5 0 -7 9 -4 20 3 11 1 20 -3 20 -5 0 -10 8 -12 18 -2
12 -6 13 -11 5z"/>
<path d="M659 1117 c-85 -24 -195 -107 -258 -196 l-22 -30 52 6 c28 3 95 0
149 -7 l98 -13 -15 -41 c-32 -84 -13 -268 36 -365 l18 -34 13 53 c11 45 25 66
82 127 46 49 68 80 68 97 0 22 -6 18 -60 -38 -59 -62 -99 -131 -100 -173 0
-40 -18 -24 -34 30 -26 90 -30 175 -12 247 30 117 92 179 187 188 42 4 47 7
37 19 -30 36 -89 55 -162 51 -39 -2 -86 -11 -103 -20 -18 -9 -33 -13 -33 -8 0
4 22 17 49 29 86 37 207 24 265 -27 18 -16 18 -16 8 4 -41 78 -168 127 -263
101z"/>
<path d="M845 918 c-51 -28 -116 -112 -115 -150 1 -7 7 1 14 18 19 44 85 114
121 130 17 7 23 13 15 13 -8 0 -24 -5 -35 -11z"/>
</g>
</svg>
